<svg width="32" height="37" viewBox="0 0 32 37" fill="none" xmlns="http://www.w3.org/2000/svg">
<path d="M16.3495 1.50118L17.1842 0.423812C16.6928 0.043137 16.0062 0.043137 15.5148 0.423812L16.3495 1.50118ZM30.6371 5.69878L31.9998 5.72095C32.0058 5.3557 31.8649 5.00334 31.6087 4.74295C31.3525 4.48254 31.0025 4.3359 30.6371 4.3359V5.69878ZM16.3495 34.8849L15.5945 36.0194C16.0518 36.3239 16.6472 36.3239 17.1045 36.0194L16.3495 34.8849ZM2.08163 5.69878V4.3359C1.71633 4.3359 1.36632 4.48254 1.11012 4.74295C0.853926 5.00334 0.712989 5.3557 0.718931 5.72095L2.08163 5.69878ZM15.5148 2.57856C21.6999 7.37045 28.7772 7.06166 30.6371 7.06166V4.3359C28.7133 4.3359 22.5474 4.57891 17.1842 0.423812L15.5148 2.57856ZM29.2744 5.67661C29.1717 12.0071 28.9039 16.4724 28.3909 19.7809C27.8846 23.0542 27.1608 25.016 26.2292 26.3939C25.2853 27.8254 24.1013 28.675 22.3468 29.7232C20.5769 30.7833 18.3414 31.9251 15.5945 33.7504L17.1045 36.0194C19.7179 34.2777 21.8968 33.168 23.7463 32.0621C25.611 30.9445 27.2512 29.7136 28.4875 27.9206C29.7359 26.0739 30.548 23.6669 31.0845 20.1974C31.6142 16.763 31.8956 12.1113 31.9998 5.72095L29.2744 5.67661ZM17.1045 33.7504C14.3578 31.9251 12.1237 30.7835 10.356 29.7236C8.60343 28.6756 7.42195 27.8264 6.48037 26.3951C5.55097 25.0174 4.82939 23.0554 4.32497 19.7816C3.8137 16.473 3.54698 12.0073 3.44433 5.67661L0.718931 5.72095C0.8232 12.1111 1.10335 16.7624 1.63101 20.1967C2.16551 23.6657 2.97494 26.0727 4.22068 27.9194C5.45426 29.7126 7.09212 30.9439 8.95522 32.0619C10.8031 33.1678 12.981 34.2777 15.5945 36.0194L17.1045 33.7504ZM2.08163 7.06166C3.92227 7.06166 10.9992 7.37033 17.1842 2.57856L15.5148 0.423812C10.1515 4.57903 3.98532 4.3359 2.08163 4.3359V7.06166Z" fill="#3375BB"/>
</svg>
