<svg width="37" height="34" viewBox="0 0 37 34" fill="none" xmlns="http://www.w3.org/2000/svg">
<path d="M34.217 0.456177L20.248 10.8311L22.8312 4.71003L34.217 0.456177Z" fill="#E2761B" stroke="#E2761B" stroke-width="0.220393" stroke-linecap="round" stroke-linejoin="round"/>
<path d="M1.96924 0.456055L15.8258 10.9292L13.369 4.7099L1.96924 0.456055Z" fill="#E4761B" stroke="#E4761B" stroke-width="0.220393" stroke-linecap="round" stroke-linejoin="round"/>
<path d="M29.1911 24.5051L25.4707 30.205L33.4309 32.3951L35.7192 24.6315L29.1911 24.5051Z" fill="#E4761B" stroke="#E4761B" stroke-width="0.220393" stroke-linecap="round" stroke-linejoin="round"/>
<path d="M0.495117 24.6315L2.76945 32.3951L10.7296 30.205L7.00926 24.5051L0.495117 24.6315Z" fill="#E4761B" stroke="#E4761B" stroke-width="0.220393" stroke-linecap="round" stroke-linejoin="round"/>
<path d="M10.2802 14.8742L8.06201 18.2296L15.966 18.5806L15.6852 10.0869L10.2802 14.8742Z" fill="#E4761B" stroke="#E4761B" stroke-width="0.220393" stroke-linecap="round" stroke-linejoin="round"/>
<path d="M25.9058 14.8744L20.4306 9.98877L20.248 18.5807L28.138 18.2297L25.9058 14.8744Z" fill="#E4761B" stroke="#E4761B" stroke-width="0.220393" stroke-linecap="round" stroke-linejoin="round"/>
<path d="M10.7295 30.205L15.4747 27.8885L11.3753 24.6876L10.7295 30.205Z" fill="#E4761B" stroke="#E4761B" stroke-width="0.220393" stroke-linecap="round" stroke-linejoin="round"/>
<path d="M20.7114 27.8885L25.4707 30.205L24.8108 24.6876L20.7114 27.8885Z" fill="#E4761B" stroke="#E4761B" stroke-width="0.220393" stroke-linecap="round" stroke-linejoin="round"/>
<path d="M25.4707 30.2049L20.7114 27.8884L21.0905 30.9911L21.0484 32.2967L25.4707 30.2049Z" fill="#D7C1B3" stroke="#D7C1B3" stroke-width="0.220393" stroke-linecap="round" stroke-linejoin="round"/>
<path d="M10.7295 30.205L15.1518 32.2968L15.1237 30.9912L15.4747 27.8885L10.7295 30.205Z" fill="#D7C1B3" stroke="#D7C1B3" stroke-width="0.220393" stroke-linecap="round" stroke-linejoin="round"/>
<path d="M15.2222 22.638L11.2632 21.4727L14.057 20.1952L15.2222 22.638Z" fill="#233447" stroke="#233447" stroke-width="0.220393" stroke-linecap="round" stroke-linejoin="round"/>
<path d="M20.9639 22.638L22.1291 20.1952L24.9369 21.4727L20.9639 22.638Z" fill="#233447" stroke="#233447" stroke-width="0.220393" stroke-linecap="round" stroke-linejoin="round"/>
<path d="M10.7296 30.2051L11.4035 24.5052L7.00928 24.6316L10.7296 30.2051Z" fill="#CD6116" stroke="#CD6116" stroke-width="0.220393" stroke-linecap="round" stroke-linejoin="round"/>
<path d="M24.7969 24.5052L25.4708 30.2051L29.1911 24.6316L24.7969 24.5052Z" fill="#CD6116" stroke="#CD6116" stroke-width="0.220393" stroke-linecap="round" stroke-linejoin="round"/>
<path d="M28.138 18.2297L20.248 18.5807L20.9781 22.638L22.1433 20.1952L24.9511 21.4728L28.138 18.2297Z" fill="#CD6116" stroke="#CD6116" stroke-width="0.220393" stroke-linecap="round" stroke-linejoin="round"/>
<path d="M11.2629 21.4728L14.0707 20.1952L15.222 22.638L15.966 18.5807L8.06201 18.2297L11.2629 21.4728Z" fill="#CD6116" stroke="#CD6116" stroke-width="0.220393" stroke-linecap="round" stroke-linejoin="round"/>
<path d="M8.06201 18.2297L11.3752 24.6877L11.2629 21.4728L8.06201 18.2297Z" fill="#E4751F" stroke="#E4751F" stroke-width="0.220393" stroke-linecap="round" stroke-linejoin="round"/>
<path d="M24.9509 21.4728L24.8105 24.6877L28.1378 18.2297L24.9509 21.4728Z" fill="#E4751F" stroke="#E4751F" stroke-width="0.220393" stroke-linecap="round" stroke-linejoin="round"/>
<path d="M15.9662 18.5807L15.2222 22.638L16.1487 27.4253L16.3593 21.1218L15.9662 18.5807Z" fill="#E4751F" stroke="#E4751F" stroke-width="0.220393" stroke-linecap="round" stroke-linejoin="round"/>
<path d="M20.2482 18.5807L19.8691 21.1077L20.0376 27.4253L20.9782 22.638L20.2482 18.5807Z" fill="#E4751F" stroke="#E4751F" stroke-width="0.220393" stroke-linecap="round" stroke-linejoin="round"/>
<path d="M20.9782 22.638L20.0376 27.4254L20.7115 27.8886L24.8109 24.6877L24.9513 21.4728L20.9782 22.638Z" fill="#F6851B" stroke="#F6851B" stroke-width="0.220393" stroke-linecap="round" stroke-linejoin="round"/>
<path d="M11.2632 21.4728L11.3755 24.6877L15.4749 27.8886L16.1488 27.4254L15.2222 22.638L11.2632 21.4728Z" fill="#F6851B" stroke="#F6851B" stroke-width="0.220393" stroke-linecap="round" stroke-linejoin="round"/>
<path d="M21.0482 32.2968L21.0904 30.9911L20.7394 30.6823H15.4466L15.1237 30.9911L15.1518 32.2968L10.7295 30.205L12.2738 31.4685L15.4045 33.6445H20.7815L23.9262 31.4685L25.4706 30.205L21.0482 32.2968Z" fill="#C0AD9E" stroke="#C0AD9E" stroke-width="0.220393" stroke-linecap="round" stroke-linejoin="round"/>
<path d="M20.7116 27.8886L20.0377 27.4253H16.1489L15.475 27.8886L15.124 30.9912L15.4469 30.6824H20.7397L21.0906 30.9912L20.7116 27.8886Z" fill="#161616" stroke="#161616" stroke-width="0.220393" stroke-linecap="round" stroke-linejoin="round"/>
<path d="M34.8067 11.5048L36 5.77687L34.217 0.456055L20.7114 10.48L25.9059 14.8742L33.2483 17.0222L34.8769 15.1269L34.1749 14.6215L35.2981 13.5967L34.4276 12.9228L35.5508 12.0664L34.8067 11.5048Z" fill="#763D16" stroke="#763D16" stroke-width="0.220393" stroke-linecap="round" stroke-linejoin="round"/>
<path d="M0.200195 5.777L1.39352 11.5049L0.635408 12.0665L1.75854 12.9229L0.902151 13.5968L2.02528 14.6216L1.32332 15.127L2.93782 17.0223L10.2803 14.8743L15.4747 10.4801L1.96912 0.456177L0.200195 5.777Z" fill="#763D16" stroke="#763D16" stroke-width="0.220393" stroke-linecap="round" stroke-linejoin="round"/>
<path d="M33.248 17.0223L25.9056 14.8743L28.1378 18.2296L24.8105 24.6876L29.1907 24.6314H35.7189L33.248 17.0223Z" fill="#F6851B" stroke="#F6851B" stroke-width="0.220393" stroke-linecap="round" stroke-linejoin="round"/>
<path d="M10.2804 14.8743L2.93792 17.0223L0.495117 24.6314H7.00926L11.3754 24.6876L8.06219 18.2296L10.2804 14.8743Z" fill="#F6851B" stroke="#F6851B" stroke-width="0.220393" stroke-linecap="round" stroke-linejoin="round"/>
<path d="M20.2483 18.5807L20.7116 10.4802L22.8455 4.71008H13.3691L15.475 10.4802L15.9664 18.5807L16.1348 21.1358L16.1489 27.4254H20.0377L20.0658 21.1358L20.2483 18.5807Z" fill="#F6851B" stroke="#F6851B" stroke-width="0.220393" stroke-linecap="round" stroke-linejoin="round"/>
</svg>
