<svg xmlns="http://www.w3.org/2000/svg" width="1911.1" height="315.76" viewBox="0 0 1911.1 315.76">
  <g id="组_249" data-name="组 249" transform="translate(-3156 -1664)">
    <path id="MP_EM_LOGO" d="M263.588,95.785A47.892,47.892,0,1,0,215.7,47.892a47.892,47.892,0,0,0,47.892,47.892M116.738,311.48A116.738,116.738,0,1,1,233.475,194.742,116.738,116.738,0,0,1,116.738,311.48" transform="translate(3156 1664)" fill="#7d00ff"/>
    <path id="路径_194" data-name="路径 194" d="M46.58-247.52a26.2,26.2,0,0,0-18.7,7.14c-5.1,4.76-7.48,10.88-7.48,18.36s2.38,13.6,7.48,18.7a26.2,26.2,0,0,0,18.7,7.14,26.2,26.2,0,0,0,18.7-7.14,24.868,24.868,0,0,0,7.82-18.7,25.11,25.11,0,0,0-7.48-18.36A27.025,27.025,0,0,0,46.58-247.52ZM27.2-175.78V0H65.96V-175.78Z" transform="translate(4994 1975)"/>
    <path id="路径_195" data-name="路径 195" d="M23.8-242.76V0H63.58V-167.28h1.36L136.34,0h34.34l71.4-167.28h1.36V0h39.78V-242.76H236.64L154.36-52.36H153L70.38-242.76Zm385.22,62.22c-26.86,0-48.28,8.5-64.26,26.18-16.32,17.34-24.14,39.44-24.14,66.64,0,26.86,7.82,48.96,23.8,65.96,16.32,17.68,37.74,26.52,64.6,26.52,26.52,0,48.28-8.84,64.6-26.52,15.64-17,23.8-39.1,23.8-65.96,0-27.2-8.16-49.3-24.14-66.64C456.96-172.04,435.54-180.54,409.02-180.54Zm0,31.62c15.98,0,28.56,6.12,37.4,19.04,7.48,10.88,11.56,25.16,11.56,42.16,0,16.66-4.08,30.6-11.56,41.82-8.84,12.58-21.42,19.04-37.4,19.04-16.32,0-28.56-6.46-37.4-19.04Q360.4-62.22,360.4-87.72c0-17,3.74-31.28,11.22-42.16C380.46-142.8,392.7-148.92,409.02-148.92Zm204-31.62c-26.86,0-48.28,8.5-64.26,26.18-16.32,17.34-24.14,39.44-24.14,66.64,0,26.86,7.82,48.96,23.8,65.96,16.32,17.68,37.74,26.52,64.6,26.52,26.52,0,48.28-8.84,64.6-26.52,15.64-17,23.8-39.1,23.8-65.96,0-27.2-8.16-49.3-24.14-66.64C660.96-172.04,639.54-180.54,613.02-180.54Zm0,31.62c15.98,0,28.56,6.12,37.4,19.04,7.48,10.88,11.56,25.16,11.56,42.16,0,16.66-4.08,30.6-11.56,41.82-8.84,12.58-21.42,19.04-37.4,19.04-16.32,0-28.56-6.46-37.4-19.04Q564.4-62.22,564.4-87.72c0-17,3.74-31.28,11.22-42.16C584.46-142.8,596.7-148.92,613.02-148.92ZM826.2-180.54a63.261,63.261,0,0,0-28.9,6.46c-8.5,4.08-16.32,10.54-23.12,18.7v-20.4H735.42V0h38.76V-105.74c1.36-13.94,6.12-24.82,14.28-32.3a35.489,35.489,0,0,1,25.16-10.2c26.52,0,39.78,14.28,39.78,43.18V0h38.76V-108.46C892.16-156.74,870.06-180.54,826.2-180.54Zm110.16-62.22V0h88.74c39.44,0,69.02-10.88,89.42-32.64,19.38-20.74,29.24-50.32,29.24-88.74,0-38.76-9.86-68.34-29.24-88.74-20.4-21.76-49.98-32.64-89.42-32.64Zm39.78,34h41.48c30.26,0,52.36,6.8,66.3,20.74,13.6,13.6,20.4,36.04,20.4,66.64q0,44.88-20.4,66.3C1069.98-41.14,1047.88-34,1017.62-34H976.14Zm276.42,28.22c-26.18,0-46.92,8.84-61.88,26.86-15.64,17.68-23.12,39.44-23.12,65.62,0,29.24,8.16,52.02,24.48,68.68,15.3,15.98,36.04,24.14,62.22,24.14,23.46,0,42.84-6.8,58.48-20.06,12.24-10.88,20.4-24.82,24.48-41.14h-38.76c-4.76,9.86-9.86,17-15.64,21.42-7.48,5.44-17,8.16-28.9,8.16-13.94,0-24.82-4.42-32.3-12.92s-11.9-21.08-13.26-37.4h131.58c0-31.62-7.14-56.44-21.08-74.12C1303.56-171.02,1281.46-180.54,1252.56-180.54Zm1.02,31.62c27.2,0,42.5,13.94,45.9,42.5h-90.44q3.57-20.91,14.28-31.62C1230.8-145.52,1240.66-148.92,1253.58-148.92Zm185.98-93.84c-15.64,0-27.88,4.08-36.04,12.92-8.5,8.5-12.58,20.4-12.58,35.36v18.7h-39.1v31.62h39.1V0h38.76V-144.16h44.88v-31.62H1429.7v-17.68c0-5.78,1.02-9.86,3.74-12.58s6.46-4.08,11.56-4.08h31.96v-32.64Z" transform="translate(3504 1975)"/>
  </g>
</svg>
